<?xml version="1.0" encoding="UTF-8"?>
<!-- Generator: Adobe Illustrator 16.0.0, SVG Export Plug-In . SVG Version: 6.00 Build 0)  -->
<svg xmlns="http://www.w3.org/2000/svg" xmlns:xlink="http://www.w3.org/1999/xlink" version="1.1" id="Layer_1" x="0px" y="0px" width="104.973px" height="106.354px" viewBox="0 0 104.973 106.354" xml:space="preserve">
<g>
	<circle fill="#E7E8EB" cx="69.019" cy="35.954" r="35.954"></circle>
	<path fill="#AF0000" d="M9.451,30.742c-2.507,0-4.911,0.996-6.684,2.769C0.996,35.284,0,37.687,0,40.193v56.708   c0,2.507,0.996,4.911,2.768,6.683c1.772,1.773,4.177,2.77,6.684,2.77h28.354c2.507,0,4.911-0.995,6.683-2.77   c1.772-1.771,2.769-4.176,2.769-6.683V40.193c0-2.506-0.996-4.91-2.769-6.684c-1.771-1.772-4.176-2.769-6.683-2.769L9.451,30.742   L9.451,30.742z M37.805,35.468c1.253,0,2.456,0.498,3.342,1.385c0.887,0.886,1.385,2.088,1.385,3.341v56.708   c0,1.253-0.498,2.455-1.385,3.342c-0.886,0.886-2.088,1.384-3.342,1.384H9.451c-1.253,0-2.455-0.498-3.342-1.384   c-0.886-0.887-1.384-2.089-1.384-3.342V40.193c0-1.253,0.498-2.455,1.384-3.341c0.887-0.887,2.089-1.385,3.342-1.385H37.805   L37.805,35.468z"></path>
	<path fill="#061735" d="M71.401,41.81c-0.312-0.166-1.852-0.972-2.141-1.085c-0.288-0.109-0.498-0.167-0.704,0.166   c-0.211,0.331-0.812,1.085-0.992,1.302c-0.181,0.223-0.367,0.249-0.681,0.084c-0.313-0.168-1.322-0.519-2.519-1.655   c-0.935-0.882-1.56-1.975-1.746-2.306c-0.181-0.333-0.018-0.511,0.14-0.677c0.138-0.148,0.312-0.391,0.469-0.582   c0.158-0.192,0.21-0.333,0.313-0.555c0.104-0.226,0.055-0.417-0.023-0.583c-0.079-0.167-0.704-1.808-0.968-2.47   c-0.254-0.654-0.512-0.563-0.704-0.571c-0.181-0.012-0.392-0.012-0.602-0.012c-0.159,0.005-0.315,0.044-0.46,0.115   s-0.272,0.173-0.377,0.3c-0.288,0.333-1.095,1.138-1.095,2.779c0,1.641,1.123,3.22,1.281,3.442   c0.155,0.225,2.206,3.583,5.354,5.027c0.743,0.344,1.329,0.547,1.786,0.703c0.752,0.255,1.432,0.216,1.973,0.134   c0.602-0.097,1.854-0.806,2.116-1.584c0.261-0.78,0.261-1.445,0.182-1.585C71.926,42.059,71.715,41.976,71.401,41.81z M65.682,50.1   c-1.869,0.001-3.703-0.533-5.311-1.545l-0.38-0.242l-3.946,1.099l1.054-4.088l-0.247-0.422c-1.044-1.764-1.597-3.806-1.593-5.889   c0-6.093,4.679-11.063,10.429-11.063c1.37-0.002,2.728,0.283,3.992,0.84c1.265,0.558,2.415,1.374,3.382,2.405   c0.971,1.026,1.739,2.247,2.264,3.591c0.523,1.344,0.791,2.784,0.787,4.239C76.105,45.138,71.427,50.1,65.682,50.1z M74.554,29.609   c-1.161-1.244-2.543-2.23-4.066-2.901c-1.522-0.671-3.156-1.013-4.806-1.007c-6.91,0-12.542,5.979-12.548,13.317   c0,2.351,0.579,4.638,1.672,6.662l-1.772,6.903l6.651-1.852c1.84,1.063,3.901,1.621,5.997,1.621h0.006   c6.912,0,12.542-5.979,12.548-13.324c0.002-1.75-0.321-3.484-0.955-5.102c-0.632-1.616-1.56-3.085-2.729-4.319L74.554,29.609   L74.554,29.609z"></path>
	<path fill="#061735" d="M72.441,41.959c-0.107-0.196-0.284-0.311-0.398-0.377c-0.109-0.063-0.281-0.146-0.406-0.214l-0.469,0.883   c0.083,0.044,0.16,0.083,0.222,0.115c0.065,0.033,0.112,0.058,0.15,0.08c0.089,0.051,0.057,0.05,0.024-0.006L72.441,41.959z    M72.297,43.942c0.143-0.429,0.216-0.83,0.241-1.15c0.013-0.16,0.015-0.308,0.005-0.433c-0.007-0.1-0.025-0.267-0.105-0.406   l-0.869,0.493c-0.04-0.07-0.028-0.103-0.021-0.013c0.005,0.063,0.005,0.156-0.005,0.277c-0.021,0.241-0.076,0.563-0.193,0.914   L72.297,43.942z M69.785,45.862c0.397-0.065,0.931-0.308,1.387-0.618c0.447-0.304,0.938-0.753,1.124-1.3l-0.947-0.322   c-0.078,0.232-0.345,0.526-0.74,0.795c-0.386,0.265-0.779,0.424-0.982,0.457L69.785,45.862z M67.573,45.708   c0.856,0.292,1.626,0.244,2.206,0.155l-0.149-0.989c-0.501,0.076-1.09,0.106-1.735-0.113L67.573,45.708z M65.737,44.985   c0.769,0.354,1.373,0.564,1.837,0.723l0.319-0.948c-0.451-0.151-1.017-0.349-1.735-0.682L65.737,44.985z M60.184,39.79   C60.184,39.79,60.184,39.79,60.184,39.79c0.002,0.002,0.003,0.003,0.004,0.005c0.002,0.004,0.005,0.01,0.009,0.016   c0.009,0.012,0.019,0.025,0.03,0.046c0.024,0.037,0.058,0.087,0.098,0.146c0.078,0.12,0.188,0.279,0.322,0.471   c0.271,0.379,0.65,0.879,1.127,1.419c0.948,1.073,2.304,2.332,3.965,3.096l0.419-0.909c-2.998-1.376-4.973-4.6-5.151-4.856   L60.184,39.79z M58.813,36.062c0,0.927,0.314,1.81,0.631,2.469c0.318,0.666,0.658,1.144,0.743,1.263l0.815-0.578   c-0.073-0.104-0.375-0.527-0.657-1.116c-0.285-0.596-0.532-1.322-0.532-2.037H58.813z M60.028,32.955   c-0.296,0.342-1.216,1.27-1.216,3.106h1c0-1.445,0.69-2.128,0.973-2.452L60.028,32.955z M60.562,32.534   c-0.208,0.104-0.392,0.25-0.541,0.429l0.771,0.639c0.062-0.074,0.135-0.133,0.215-0.171L60.562,32.534z M61.229,32.368   c-0.231,0.006-0.46,0.063-0.668,0.167l0.444,0.896c0.079-0.04,0.165-0.062,0.25-0.063L61.229,32.368z M61.877,32.38   c-0.2-0.013-0.428-0.013-0.634-0.013v1c0.215,0,0.406,0,0.567,0.011L61.877,32.38z M63.015,33.27   c-0.145-0.373-0.333-0.652-0.617-0.794c-0.141-0.07-0.271-0.091-0.371-0.096c-0.047-0.002-0.089-0.002-0.113-0.001   c-0.031,0-0.04,0-0.046,0l-0.044,0.999c0.042,0.002,0.084,0.001,0.104,0c0.026,0,0.038,0,0.047,0c0.013,0-0.003,0.001-0.022-0.01   c-0.044-0.021,0.022-0.02,0.132,0.261L63.015,33.27z M63.969,35.706c0,0-0.004-0.007-0.013-0.026   c-0.008-0.02-0.019-0.044-0.029-0.073c-0.024-0.061-0.056-0.139-0.092-0.231c-0.074-0.186-0.167-0.427-0.268-0.684   c-0.197-0.512-0.422-1.091-0.556-1.425l-0.929,0.371c0.131,0.327,0.352,0.899,0.552,1.416c0.192,0.497,0.379,0.979,0.43,1.082   L63.969,35.706z M63.995,36.711c0.188-0.413,0.084-0.769-0.025-1.002l-0.906,0.423c0.025,0.056,0.033,0.086,0.035,0.105   c0.001,0.012,0.001,0.028-0.013,0.059L63.995,36.711z M63.612,37.376c0.209-0.252,0.29-0.464,0.383-0.663l-0.907-0.421   c-0.114,0.246-0.138,0.316-0.245,0.446L63.612,37.376z M63.125,37.98c0.147-0.16,0.369-0.459,0.488-0.606l-0.773-0.633   c-0.192,0.236-0.32,0.421-0.447,0.558L63.125,37.98z M63.06,38.078c-0.021-0.039-0.021-0.052-0.02-0.042   c0.001,0.013-0.001,0.031-0.006,0.046c-0.005,0.011-0.007,0.009,0.009-0.011c0.017-0.021,0.039-0.045,0.08-0.089l-0.729-0.687   c-0.064,0.07-0.225,0.229-0.303,0.452c-0.094,0.266-0.056,0.54,0.088,0.807L63.06,38.078z M64.708,40.258   c-0.875-0.826-1.471-1.861-1.653-2.188l-0.87,0.492c0.189,0.337,0.845,1.484,1.837,2.423L64.708,40.258z M67.121,41.837   c-0.365-0.196-1.279-0.5-2.411-1.577l-0.689,0.726c1.261,1.198,2.368,1.594,2.626,1.731L67.121,41.837z M67.176,41.879   c-0.023,0.028-0.031,0.031-0.023,0.026c0.006-0.003,0.014-0.007,0.024-0.012s0.023-0.008,0.035-0.01   c0.022-0.003,0.031,0.001,0.015-0.002c-0.018-0.005-0.053-0.018-0.109-0.048l-0.466,0.887c0.189,0.099,0.426,0.188,0.687,0.156   c0.282-0.036,0.479-0.2,0.616-0.37L67.176,41.879z M68.135,40.622c-0.191,0.301-0.772,1.032-0.955,1.251l0.77,0.641   c0.18-0.216,0.801-0.992,1.029-1.354L68.135,40.622z M69.438,40.257c-0.126-0.048-0.363-0.142-0.62-0.11   c-0.314,0.037-0.534,0.235-0.688,0.481l0.851,0.525c0.029-0.047,0.042-0.052,0.03-0.044c-0.006,0.005-0.017,0.012-0.032,0.018   s-0.029,0.011-0.043,0.012c-0.021,0.002-0.025-0.002,0.003,0.005c0.015,0.003,0.032,0.009,0.058,0.017   c0.024,0.009,0.054,0.02,0.087,0.032L69.438,40.257z M71.637,41.369c-0.158-0.084-0.624-0.329-1.086-0.565   c-0.446-0.229-0.933-0.476-1.106-0.544l-0.366,0.931c0.114,0.045,0.544,0.26,1.018,0.503c0.458,0.235,0.918,0.477,1.071,0.559   L71.637,41.369z M75.612,39.023c-0.006,5.868-4.488,10.577-9.93,10.577v1c6.05,0,10.924-5.215,10.931-11.575L75.612,39.023z    M74.858,34.967c0.5,1.285,0.758,2.664,0.754,4.057l1,0.003c0.004-1.518-0.274-3.021-0.821-4.422L74.858,34.967z M72.698,31.537   c0.925,0.979,1.658,2.146,2.159,3.43l0.933-0.362c-0.547-1.402-1.351-2.679-2.365-3.753L72.698,31.537z M69.479,29.247   c1.202,0.529,2.297,1.308,3.218,2.289l0.729-0.684c-1.012-1.079-2.216-1.937-3.544-2.521L69.479,29.247z M65.688,28.449   c1.3-0.002,2.588,0.269,3.79,0.798l0.403-0.916c-1.329-0.584-2.755-0.885-4.195-0.882L65.688,28.449z M55.759,39.012   c0-5.846,4.482-10.563,9.929-10.563v-1c-6.054,0-10.929,5.223-10.929,11.563H55.759z M57.282,44.646   c-0.998-1.686-1.527-3.64-1.523-5.634l-1-0.002c-0.004,2.173,0.571,4.303,1.663,6.146L57.282,44.646z M57.53,45.07l-0.246-0.422   l-0.862,0.505l0.246,0.422L57.53,45.07z M56.529,49.536l1.055-4.088l-0.97-0.25l-1.054,4.088L56.529,49.536z M59.857,47.831   l-3.945,1.1l0.268,0.963l3.946-1.1L59.857,47.831z M60.64,48.133l-0.38-0.241l-0.537,0.843l0.38,0.242L60.64,48.133z M65.682,49.6   c-1.772,0.001-3.516-0.505-5.044-1.47l-0.533,0.848c1.687,1.062,3.612,1.623,5.577,1.622V49.6z M74.552,30.109h0.002v-1h-0.002   V30.109z M77.746,33.747c-0.655-1.676-1.617-3.199-2.831-4.48l-0.728,0.688c1.124,1.188,2.018,2.601,2.626,4.158L77.746,33.747z    M78.735,39.031c0.002-1.813-0.334-3.608-0.988-5.284l-0.933,0.364c0.609,1.559,0.923,3.229,0.921,4.919L78.735,39.031z    M65.688,52.854c7.216,0,13.042-6.23,13.048-13.823l-1-0.001c-0.006,7.099-5.439,12.824-12.048,12.824V52.854z M65.682,52.854   h0.006v-1h-0.006V52.854z M59.435,51.166c1.915,1.107,4.063,1.688,6.247,1.688v-1c-2.006,0-3.98-0.534-5.747-1.555L59.435,51.166z    M53.166,53.066l6.651-1.853l-0.269-0.963l-6.651,1.853L53.166,53.066z M54.321,45.557l-1.772,6.903l0.969,0.249l1.773-6.903   L54.321,45.557z M52.634,39.019c0,2.433,0.6,4.802,1.732,6.899l0.88-0.475c-1.055-1.951-1.612-4.156-1.612-6.425H52.634z    M65.682,25.201c-7.214,0-13.042,6.231-13.048,13.817l1,0.001c0.006-7.093,5.441-12.818,12.048-12.818V25.201z M70.689,26.251   c-1.587-0.699-3.29-1.056-5.01-1.05l0.004,1c1.578-0.006,3.144,0.322,4.604,0.965L70.689,26.251z M74.919,29.269   c-1.206-1.292-2.645-2.318-4.229-3.019l-0.402,0.915c1.46,0.644,2.786,1.589,3.901,2.785L74.919,29.269z M72.003,42.199   l-0.438,0.241l0.004,0.006L72.003,42.199z M71.822,43.784l0.475,0.161l0.001-0.003L71.822,43.784z M69.705,45.368l0.074,0.495   h0.006L69.705,45.368z M67.733,45.234l0.161-0.475h-0.001L67.733,45.234z M65.947,44.532l0.211-0.454l-0.001-0.001L65.947,44.532z    M60.594,39.504l0.411-0.285l-0.003-0.004L60.594,39.504z M60.406,33.282l0.378,0.328l0.007-0.008L60.406,33.282z M61.243,32.867   v-0.5h-0.015L61.243,32.867z M61.845,32.879l-0.033,0.499h0.012L61.845,32.879z M62.549,33.451l-0.467,0.18l0.002,0.005   L62.549,33.451z M63.517,35.92l0.453-0.211l-0.001-0.003L63.517,35.92z M63.54,36.504l0.454,0.21l0.001-0.002L63.54,36.504z    M63.228,37.058l-0.386-0.319l-0.002,0.002L63.228,37.058z M62.759,37.64l0.364,0.343l0.002-0.002L62.759,37.64z M62.619,38.316   l-0.439,0.238l0.005,0.008L62.619,38.316z M64.365,40.622l0.345-0.362l-0.002-0.001L64.365,40.622z M66.884,42.277l-0.237,0.439   l0.005,0.004L66.884,42.277z M67.564,42.193l-0.385-0.32l-0.004,0.006L67.564,42.193z M68.557,40.891l0.422,0.269l0.003-0.006   L68.557,40.891z M69.261,40.725l0.184-0.467l-0.006-0.002L69.261,40.725z M76.112,39.024l-0.5-0.001v0.001H76.112z M73.062,31.194   l-0.365,0.342l0.003,0.001L73.062,31.194z M65.688,27.949v0.5h0.001L65.688,27.949z M55.259,39.012h0.5l0,0H55.259z M56.852,44.901   l0.433-0.253l-0.001-0.002L56.852,44.901z M57.099,45.323l0.484,0.125l0.052-0.2L57.53,45.07L57.099,45.323z M56.045,49.411   l-0.484-0.125l-0.216,0.839l0.834-0.231L56.045,49.411z M59.991,48.313l0.269-0.422l-0.188-0.12l-0.215,0.06L59.991,48.313z    M60.371,48.554l-0.27,0.421l0.002,0.002L60.371,48.554z M74.552,29.609v-0.5H73.39l0.799,0.844L74.552,29.609z M78.235,39.03h-0.5   H78.235z M65.682,52.354v0.5l0,0V52.354z M59.685,50.733l0.25-0.434l-0.182-0.104l-0.203,0.057L59.685,50.733z M53.032,52.585   l-0.484-0.124l-0.215,0.838l0.833-0.231L53.032,52.585z M54.806,45.681l0.484,0.125l0.049-0.19l-0.093-0.172L54.806,45.681z    M53.134,39.019h-0.5l0,0H53.134z M65.682,25.701v0.5h0.002L65.682,25.701z M74.554,29.609v0.5h1.15l-0.785-0.841L74.554,29.609z"></path>
	<path fill="#061735" d="M23.628,97.11c1.338,0,2.619-0.486,3.563-1.354c0.945-0.865,1.478-2.042,1.478-3.267   c0-1.226-0.531-2.401-1.478-3.268c-0.945-0.867-2.227-1.354-3.563-1.354c-1.336,0-2.618,0.487-3.563,1.354   c-0.944,0.866-1.477,2.042-1.477,3.268c0,1.225,0.531,2.4,1.477,3.267C21.01,96.624,22.292,97.11,23.628,97.11z"></path>
</g>
</svg>
