<?xml version="1.0" encoding="UTF-8"?>
<!-- Generator: Adobe Illustrator 16.0.0, SVG Export Plug-In . SVG Version: 6.00 Build 0)  -->
<svg xmlns="http://www.w3.org/2000/svg" xmlns:xlink="http://www.w3.org/1999/xlink" version="1.1" id="Layer_1" x="0px" y="0px" width="110.85px" height="114.393px" viewBox="0 0 110.85 114.393" xml:space="preserve">
<g>
	<circle fill="#E7E8EB" cx="72.894" cy="37.955" r="37.955"></circle>
	<path fill="#061735" d="M59.55,28.923c0-1.236,0.491-2.421,1.364-3.295c0.875-0.874,2.062-1.365,3.297-1.365   s2.421,0.491,3.295,1.365s1.365,2.06,1.365,3.295s-0.491,2.421-1.365,3.295s-2.06,1.365-3.295,1.365s-2.422-0.491-3.297-1.365   C60.041,31.345,59.55,30.159,59.55,28.923z M64.211,22.188c-0.885,0-1.762,0.174-2.578,0.514c-0.816,0.339-1.561,0.835-2.186,1.46   c-0.625,0.626-1.121,1.367-1.46,2.186s-0.513,1.693-0.513,2.578s0.174,1.76,0.513,2.578c0.339,0.817,0.835,1.56,1.46,2.185   s1.368,1.122,2.186,1.46c0.816,0.338,1.693,0.514,2.578,0.514c1.785,0,3.499-0.71,4.763-1.974c1.264-1.263,1.973-2.976,1.973-4.763   s-0.709-3.5-1.973-4.763C67.71,22.897,65.996,22.188,64.211,22.188z"></path>
	<path fill="#061735" d="M61.445,31.688c-0.733-0.732-1.146-1.728-1.146-2.765h-1.5c0,1.435,0.569,2.811,1.585,3.826L61.445,31.688z    M64.211,32.834c-1.038,0-2.032-0.412-2.766-1.146l-1.062,1.062c1.015,1.015,2.392,1.585,3.826,1.585L64.211,32.834L64.211,32.834z    M66.976,31.688c-0.733,0.733-1.729,1.146-2.766,1.146v1.5c1.435,0,2.812-0.57,3.825-1.585L66.976,31.688z M68.121,28.923   c0,1.037-0.412,2.032-1.146,2.765l1.061,1.062c1.015-1.016,1.585-2.392,1.585-3.826H68.121z M66.976,26.158   c0.732,0.732,1.146,1.728,1.146,2.765h1.5c0-1.436-0.57-2.812-1.585-3.826L66.976,26.158z M64.211,25.013   c1.037,0,2.031,0.412,2.766,1.146l1.061-1.062c-1.015-1.015-2.392-1.585-3.825-1.585L64.211,25.013L64.211,25.013z M61.445,26.158   c0.731-0.733,1.728-1.146,2.766-1.146v-1.5c-1.436,0-2.813,0.57-3.826,1.585L61.445,26.158z M60.3,28.923   c0-1.037,0.412-2.032,1.146-2.765l-1.062-1.062c-1.016,1.015-1.585,2.391-1.585,3.826H60.3z M69.504,23.63   c-1.403-1.403-3.309-2.192-5.293-2.192v1.5c1.587,0,3.109,0.631,4.232,1.753L69.504,23.63z M71.695,28.923   c0-1.985-0.788-3.889-2.191-5.293l-1.061,1.061c1.122,1.123,1.752,2.646,1.752,4.233L71.695,28.923L71.695,28.923z M69.504,34.217   c1.403-1.404,2.191-3.308,2.191-5.293h-1.5c0,1.587-0.63,3.11-1.752,4.232L69.504,34.217z M64.211,36.409   c1.984,0,3.89-0.789,5.293-2.192l-1.061-1.061c-1.123,1.122-2.646,1.753-4.232,1.753V36.409z M61.346,35.839   c0.907,0.376,1.881,0.57,2.864,0.57v-1.5c-0.787,0-1.563-0.155-2.291-0.456L61.346,35.839z M58.917,34.217   c0.695,0.695,1.521,1.246,2.43,1.622l0.573-1.386c-0.727-0.302-1.387-0.741-1.941-1.297L58.917,34.217z M57.295,31.788   c0.375,0.907,0.929,1.732,1.622,2.429l1.062-1.061c-0.557-0.557-0.997-1.216-1.298-1.942L57.295,31.788z M56.725,28.923   c0,0.983,0.192,1.957,0.569,2.865l1.386-0.574c-0.302-0.727-0.455-1.505-0.455-2.291H56.725z M57.295,26.059   c-0.377,0.908-0.569,1.882-0.569,2.865h1.5c0-0.786,0.153-1.564,0.455-2.291L57.295,26.059z M58.917,23.63   c-0.693,0.695-1.247,1.521-1.622,2.429l1.386,0.574c0.301-0.727,0.741-1.386,1.298-1.942L58.917,23.63z M61.346,22.007   c-0.908,0.376-1.733,0.928-2.43,1.623l1.062,1.061c0.556-0.556,1.216-0.996,1.941-1.297L61.346,22.007z M64.211,21.438   c-0.983,0-1.957,0.194-2.864,0.57l0.573,1.386c0.728-0.301,1.504-0.456,2.291-0.456V21.438z M64.211,24.263v-0.75V24.263z    M70.945,28.923h0.75H70.945z M64.211,35.659v-0.75V35.659z"></path>
	<path fill="#061735" d="M62.473,15.699c0.511-1.732,2.963-1.732,3.475,0l0.194,0.661c0.164,0.557,0.449,1.069,0.839,1.5   c0.387,0.432,0.867,0.771,1.401,0.992c0.536,0.223,1.115,0.321,1.693,0.29c0.58-0.031,1.146-0.19,1.654-0.469l0.604-0.332   c1.585-0.861,3.32,0.872,2.457,2.459l-0.33,0.606c-0.276,0.509-0.438,1.073-0.468,1.652s0.069,1.158,0.291,1.693   c0.222,0.536,0.563,1.015,0.992,1.401c0.432,0.389,0.944,0.675,1.5,0.839l0.66,0.194c1.731,0.511,1.731,2.963,0,3.475l-0.662,0.194   c-0.557,0.164-1.069,0.451-1.5,0.838c-0.432,0.389-0.771,0.867-0.992,1.403c-0.222,0.536-0.321,1.115-0.29,1.694   c0.031,0.58,0.191,1.144,0.469,1.652l0.332,0.604c0.861,1.585-0.872,3.32-2.459,2.457l-0.604-0.33   c-0.51-0.277-1.075-0.438-1.654-0.469s-1.158,0.068-1.693,0.291c-0.535,0.222-1.016,0.562-1.402,0.993   c-0.388,0.431-0.674,0.943-0.838,1.5l-0.194,0.659c-0.512,1.732-2.964,1.732-3.475,0l-0.195-0.661   c-0.164-0.557-0.449-1.068-0.838-1.499c-0.387-0.432-0.866-0.771-1.402-0.992c-0.535-0.223-1.113-0.321-1.691-0.29   c-0.579,0.031-1.145,0.189-1.653,0.468l-0.605,0.332c-1.585,0.861-3.319-0.872-2.457-2.459l0.33-0.604   c0.278-0.509,0.438-1.074,0.47-1.653c0.03-0.579-0.068-1.158-0.29-1.694c-0.223-0.536-0.562-1.016-0.993-1.404   c-0.432-0.388-0.944-0.674-1.5-0.838l-0.662-0.194c-1.733-0.511-1.733-2.964,0-3.475l0.662-0.193   c0.556-0.165,1.066-0.451,1.498-0.839c0.431-0.387,0.77-0.866,0.992-1.401c0.222-0.535,0.32-1.113,0.291-1.692   c-0.03-0.579-0.19-1.143-0.468-1.651l-0.332-0.606c-0.86-1.585,0.872-3.32,2.459-2.457l0.605,0.33   c0.51,0.277,1.074,0.437,1.653,0.468c0.578,0.031,1.156-0.067,1.691-0.29c0.536-0.222,1.017-0.561,1.402-0.992   c0.389-0.431,0.674-0.942,0.838-1.499L62.473,15.699z M67.937,15.112c-1.094-3.715-6.36-3.715-7.454,0l-0.194,0.662   c-0.077,0.26-0.21,0.499-0.391,0.699c-0.182,0.201-0.404,0.359-0.653,0.462c-0.25,0.104-0.52,0.15-0.79,0.136   c-0.27-0.015-0.533-0.089-0.771-0.218l-0.605-0.332c-3.403-1.851-7.124,1.872-5.271,5.273l0.33,0.604   c0.129,0.237,0.203,0.501,0.218,0.771c0.014,0.27-0.032,0.54-0.136,0.79c-0.104,0.249-0.262,0.473-0.463,0.652   c-0.2,0.181-0.439,0.314-0.698,0.392l-0.662,0.195c-3.714,1.093-3.714,6.359,0,7.452l0.662,0.195   c0.259,0.076,0.498,0.21,0.698,0.391c0.201,0.182,0.359,0.404,0.463,0.653c0.104,0.25,0.149,0.521,0.136,0.79   c-0.016,0.271-0.089,0.533-0.218,0.771l-0.332,0.604c-1.852,3.403,1.869,7.126,5.272,5.271l0.605-0.33   c0.236-0.129,0.501-0.204,0.771-0.219c0.271-0.014,0.54,0.032,0.79,0.137c0.249,0.104,0.473,0.261,0.653,0.462   s0.313,0.439,0.391,0.699l0.194,0.662c1.094,3.715,6.36,3.715,7.454,0l0.194-0.662c0.076-0.26,0.21-0.499,0.391-0.699   c0.182-0.201,0.403-0.359,0.653-0.462c0.25-0.104,0.521-0.15,0.789-0.137c0.271,0.016,0.533,0.09,0.771,0.219l0.604,0.332   c3.403,1.853,7.126-1.872,5.271-5.273l-0.329-0.604c-0.13-0.237-0.205-0.501-0.219-0.771c-0.015-0.271,0.031-0.54,0.135-0.79   c0.104-0.249,0.262-0.473,0.463-0.653c0.201-0.18,0.44-0.313,0.699-0.391l0.662-0.195c3.715-1.093,3.715-6.359,0-7.452   l-0.662-0.195c-0.259-0.076-0.498-0.21-0.699-0.392c-0.201-0.181-0.358-0.403-0.463-0.652c-0.104-0.25-0.148-0.521-0.135-0.79   c0.013-0.271,0.089-0.534,0.219-0.771l0.332-0.604c1.853-3.403-1.873-7.124-5.273-5.271l-0.604,0.33   c-0.238,0.129-0.501,0.204-0.771,0.218c-0.27,0.015-0.539-0.031-0.789-0.136c-0.25-0.104-0.473-0.261-0.653-0.462   s-0.313-0.439-0.391-0.699L67.937,15.112z"></path>
	<path fill="#061735" d="M62.758,16.503l0.195-0.662l-0.96-0.283l-0.194,0.662L62.758,16.503z M61.812,18.195   c0.438-0.485,0.761-1.063,0.945-1.691l-0.959-0.283c-0.144,0.484-0.393,0.931-0.729,1.307L61.812,18.195z M60.229,19.314   c0.604-0.251,1.146-0.633,1.583-1.12l-0.743-0.668c-0.338,0.375-0.756,0.671-1.223,0.864L60.229,19.314z M58.318,19.642   c0.653,0.035,1.307-0.077,1.91-0.327l-0.383-0.924c-0.468,0.193-0.972,0.279-1.476,0.253L58.318,19.642z M56.453,19.115   c0.574,0.313,1.211,0.492,1.865,0.526l0.053-0.998c-0.504-0.026-0.996-0.166-1.438-0.408L56.453,19.115z M55.847,18.784l0.605,0.33   l0.479-0.879l-0.606-0.329L55.847,18.784z M54.066,20.563c-0.624-1.147,0.631-2.403,1.781-1.778l0.477-0.878   c-2.025-1.102-4.235,1.111-3.137,3.135L54.066,20.563z M54.397,21.167l-0.332-0.606l-0.877,0.48l0.332,0.605L54.397,21.167z    M54.925,23.034c-0.033-0.653-0.214-1.291-0.525-1.865l-0.879,0.478c0.241,0.444,0.38,0.937,0.406,1.44L54.925,23.034z    M54.597,24.943c0.25-0.604,0.361-1.257,0.327-1.909l-0.999,0.053c0.027,0.504-0.06,1.008-0.253,1.474L54.597,24.943z    M53.478,26.525c0.485-0.438,0.869-0.978,1.119-1.582l-0.925-0.383c-0.192,0.467-0.488,0.884-0.863,1.223L53.478,26.525z    M51.787,27.472c0.627-0.186,1.205-0.509,1.691-0.946l-0.668-0.742c-0.375,0.338-0.822,0.587-1.307,0.729L51.787,27.472z    M51.125,27.667l0.662-0.195l-0.283-0.959l-0.662,0.195L51.125,27.667z M51.125,30.181c-1.254-0.369-1.254-2.145,0-2.514   l-0.282-0.959c-2.211,0.65-2.211,3.782,0,4.433L51.125,30.181z M51.787,30.376l-0.662-0.195l-0.283,0.959l0.662,0.195   L51.787,30.376z M53.48,31.322c-0.487-0.438-1.066-0.761-1.694-0.945l-0.283,0.959c0.485,0.143,0.933,0.393,1.309,0.729   L53.48,31.322z M54.601,32.906c-0.25-0.605-0.634-1.146-1.12-1.585l-0.668,0.743c0.376,0.338,0.671,0.756,0.865,1.225   L54.601,32.906z M54.928,34.819c0.034-0.653-0.077-1.307-0.327-1.912l-0.925,0.383c0.193,0.467,0.279,0.972,0.253,1.477   L54.928,34.819z M54.398,36.686c0.313-0.575,0.495-1.213,0.53-1.867l-0.999-0.053c-0.027,0.504-0.167,0.997-0.409,1.44   L54.398,36.686z M54.068,37.289l0.33-0.604l-0.878-0.479l-0.33,0.604L54.068,37.289z M55.847,39.069   c-1.148,0.624-2.404-0.631-1.779-1.78L53.19,36.81c-1.103,2.025,1.111,4.236,3.134,3.139L55.847,39.069z M56.451,38.738   l-0.604,0.332l0.479,0.877l0.605-0.331L56.451,38.738z M58.318,38.21c-0.654,0.034-1.291,0.215-1.865,0.526l0.479,0.879   c0.442-0.242,0.936-0.381,1.438-0.408L58.318,38.21z M60.229,38.537c-0.604-0.25-1.257-0.362-1.91-0.327l0.053,0.998   c0.504-0.026,1.008,0.06,1.476,0.253L60.229,38.537z M61.812,39.657c-0.438-0.487-0.979-0.869-1.583-1.12l-0.383,0.924   c0.467,0.192,0.885,0.489,1.223,0.864L61.812,39.657z M62.758,41.349c-0.186-0.627-0.509-1.206-0.945-1.691l-0.743,0.668   c0.338,0.376,0.587,0.821,0.729,1.307L62.758,41.349z M62.953,42.011l-0.195-0.662l-0.959,0.283l0.194,0.662L62.953,42.011z    M65.467,42.011c-0.368,1.255-2.145,1.255-2.514,0l-0.96,0.283c0.651,2.211,3.782,2.211,4.433,0L65.467,42.011z M65.662,41.351   l-0.195,0.66l0.959,0.283l0.195-0.66L65.662,41.351z M66.607,39.657c-0.438,0.486-0.761,1.065-0.945,1.693l0.959,0.282   c0.144-0.485,0.394-0.932,0.73-1.308L66.607,39.657z M68.191,38.537c-0.605,0.25-1.146,0.633-1.584,1.12l0.744,0.669   c0.338-0.376,0.756-0.673,1.223-0.865L68.191,38.537z M70.103,38.209c-0.653-0.035-1.308,0.077-1.911,0.328l0.383,0.924   c0.467-0.193,0.971-0.28,1.476-0.253L70.103,38.209z M71.969,38.737c-0.573-0.313-1.213-0.493-1.865-0.527l-0.054,0.999   c0.506,0.026,0.997,0.167,1.44,0.408L71.969,38.737z M72.573,39.068l-0.604-0.33l-0.479,0.878l0.604,0.329L72.573,39.068z    M74.354,37.288c0.623,1.147-0.631,2.403-1.781,1.778l-0.478,0.878c2.024,1.102,4.234-1.111,3.138-3.135L74.354,37.288z    M74.022,36.687l0.332,0.604l0.876-0.482l-0.332-0.604L74.022,36.687z M73.492,34.819c0.035,0.653,0.217,1.291,0.529,1.866   l0.879-0.479c-0.242-0.444-0.382-0.937-0.409-1.441L73.492,34.819z M73.82,32.908c-0.25,0.604-0.362,1.258-0.328,1.911l0.999-0.054   c-0.026-0.504,0.06-1.009,0.253-1.476L73.82,32.908z M74.939,31.324c-0.486,0.438-0.869,0.979-1.119,1.583l0.924,0.382   c0.193-0.468,0.488-0.886,0.864-1.224L74.939,31.324z M76.633,30.378c-0.628,0.186-1.206,0.509-1.692,0.946l0.669,0.742   c0.376-0.338,0.823-0.587,1.308-0.729L76.633,30.378z M77.295,30.183l-0.662,0.195l0.283,0.959l0.662-0.195L77.295,30.183z    M77.295,27.668c1.254,0.37,1.254,2.145,0,2.515l0.283,0.959c2.211-0.65,2.211-3.782,0-4.434L77.295,27.668z M76.635,27.474   l0.66,0.195l0.283-0.959l-0.66-0.195L76.635,27.474z M74.942,26.528c0.487,0.438,1.064,0.761,1.691,0.945l0.283-0.959   c-0.483-0.143-0.932-0.392-1.307-0.729L74.942,26.528z M73.822,24.945c0.25,0.604,0.633,1.146,1.12,1.583l0.669-0.743   c-0.377-0.338-0.672-0.756-0.865-1.223L73.822,24.945z M73.494,23.035c-0.035,0.652,0.078,1.306,0.328,1.91l0.924-0.383   c-0.192-0.467-0.28-0.971-0.254-1.476L73.494,23.035z M74.021,21.169c-0.313,0.575-0.493,1.212-0.527,1.866l0.998,0.052   c0.027-0.504,0.166-0.996,0.408-1.44L74.021,21.169z M74.352,20.563l-0.33,0.606l0.879,0.478l0.329-0.605L74.352,20.563z    M72.572,18.782c1.148-0.624,2.404,0.631,1.779,1.78l0.879,0.479c1.101-2.025-1.113-4.236-3.135-3.139L72.572,18.782z    M71.971,19.113l0.604-0.331l-0.481-0.877l-0.604,0.332L71.971,19.113z M70.104,19.643c0.652-0.035,1.291-0.215,1.864-0.527   l-0.479-0.879c-0.443,0.242-0.936,0.382-1.44,0.409L70.104,19.643z M68.191,19.315c0.604,0.25,1.258,0.362,1.912,0.327   l-0.055-0.998c-0.505,0.026-1.009-0.06-1.476-0.253L68.191,19.315z M66.607,18.195c0.438,0.487,0.979,0.87,1.584,1.12l0.383-0.924   c-0.467-0.192-0.885-0.489-1.223-0.864L66.607,18.195z M65.662,16.503c0.187,0.627,0.508,1.206,0.945,1.691l0.744-0.668   c-0.338-0.376-0.588-0.822-0.73-1.308L65.662,16.503z M65.467,15.841l0.195,0.662l0.959-0.283l-0.195-0.662L65.467,15.841z    M62.953,15.841c0.369-1.255,2.146-1.255,2.514,0l0.959-0.283c-0.649-2.211-3.78-2.211-4.433,0L62.953,15.841z M68.611,15.633   l-0.195-0.662l-0.959,0.283l0.195,0.662L68.611,15.633z M68.895,16.139c-0.131-0.146-0.229-0.318-0.283-0.506l-0.959,0.282   c0.098,0.331,0.268,0.636,0.498,0.893L68.895,16.139z M69.367,16.474c-0.181-0.075-0.342-0.188-0.473-0.335l-0.744,0.669   c0.229,0.256,0.516,0.458,0.834,0.59L69.367,16.474z M69.939,16.572c-0.195,0.011-0.392-0.022-0.572-0.098l-0.383,0.924   c0.317,0.132,0.663,0.191,1.008,0.173L69.939,16.572z M70.496,16.414c-0.172,0.094-0.361,0.146-0.557,0.157l0.053,0.999   c0.344-0.018,0.68-0.112,0.982-0.277L70.496,16.414z M71.103,16.084l-0.606,0.33l0.479,0.878l0.605-0.33L71.103,16.084z    M77.054,22.033c2.092-3.843-2.112-8.041-5.951-5.949l0.479,0.878c2.964-1.614,6.209,1.628,4.595,4.593L77.054,22.033z    M76.721,22.64l0.332-0.604l-0.878-0.48l-0.332,0.605L76.721,22.64z M76.564,23.197c0.01-0.195,0.063-0.386,0.157-0.558   l-0.879-0.478c-0.164,0.303-0.26,0.639-0.278,0.982L76.564,23.197z M76.662,23.769c-0.075-0.181-0.108-0.376-0.098-0.572l-1-0.053   c-0.019,0.346,0.041,0.688,0.174,1.008L76.662,23.769z M76.996,24.241c-0.145-0.131-0.26-0.292-0.334-0.474l-0.924,0.383   c0.132,0.318,0.334,0.604,0.59,0.834L76.996,24.241z M77.503,24.524c-0.188-0.056-0.359-0.151-0.507-0.282l-0.668,0.743   c0.256,0.23,0.563,0.4,0.894,0.498L77.503,24.524z M78.165,24.719l-0.662-0.195l-0.281,0.959l0.661,0.195L78.165,24.719z    M78.164,33.132c4.193-1.234,4.193-7.179,0-8.413l-0.281,0.959c3.235,0.953,3.235,5.542,0,6.494L78.164,33.132z M77.503,33.327   l0.662-0.195l-0.282-0.959l-0.661,0.195L77.503,33.327z M76.996,33.61c0.146-0.131,0.318-0.228,0.507-0.282l-0.281-0.959   c-0.331,0.098-0.638,0.268-0.894,0.498L76.996,33.61z M76.662,34.083c0.074-0.182,0.189-0.342,0.334-0.474l-0.668-0.743   c-0.256,0.229-0.458,0.516-0.59,0.834L76.662,34.083z M76.564,34.655c-0.013-0.194,0.021-0.391,0.098-0.571l-0.924-0.382   c-0.133,0.318-0.191,0.663-0.174,1.007L76.564,34.655z M76.722,35.213c-0.095-0.172-0.147-0.362-0.157-0.559l-1,0.054   c0.02,0.344,0.114,0.68,0.278,0.982L76.722,35.213z M77.052,35.818l-0.329-0.604l-0.879,0.478l0.33,0.606L77.052,35.818z    M71.103,41.77c3.841,2.092,8.043-2.111,5.947-5.951l-0.877,0.479c1.615,2.963-1.627,6.209-4.593,4.595L71.103,41.77z    M70.496,41.437l0.605,0.332l0.479-0.877l-0.604-0.332L70.496,41.437z M69.939,41.28c0.194,0.011,0.385,0.064,0.557,0.158   l0.479-0.878c-0.304-0.165-0.64-0.26-0.982-0.277L69.939,41.28z M69.367,41.378c0.182-0.075,0.377-0.108,0.572-0.099l0.053-0.998   c-0.345-0.02-0.688,0.04-1.008,0.173L69.367,41.378z M68.895,41.713c0.131-0.146,0.292-0.26,0.473-0.335l-0.383-0.924   c-0.318,0.132-0.604,0.333-0.834,0.59L68.895,41.713z M68.611,42.219c0.055-0.188,0.152-0.36,0.283-0.506l-0.744-0.669   c-0.23,0.257-0.4,0.562-0.498,0.893L68.611,42.219z M68.416,42.881l0.195-0.662l-0.959-0.282l-0.195,0.662L68.416,42.881z    M60.004,42.881c1.234,4.192,7.179,4.192,8.412,0l-0.959-0.282c-0.953,3.235-5.541,3.235-6.494,0L60.004,42.881z M59.809,42.219   l0.194,0.662l0.959-0.283l-0.194-0.662L59.809,42.219z M59.525,41.713c0.131,0.146,0.228,0.318,0.283,0.506l0.959-0.282   c-0.099-0.331-0.269-0.636-0.498-0.893L59.525,41.713z M59.053,41.378c0.18,0.075,0.342,0.188,0.473,0.335l0.744-0.669   c-0.23-0.256-0.517-0.458-0.834-0.59L59.053,41.378z M58.48,41.28c0.194-0.01,0.391,0.023,0.571,0.099l0.384-0.924   c-0.319-0.133-0.663-0.191-1.009-0.173L58.48,41.28z M57.923,41.438c0.173-0.094,0.362-0.146,0.559-0.158l-0.053-0.998   c-0.345,0.018-0.681,0.112-0.983,0.277L57.923,41.438z M57.316,41.768l0.605-0.33l-0.478-0.878l-0.606,0.33L57.316,41.768z    M51.366,35.819c-2.088,3.841,2.11,8.042,5.952,5.949l-0.479-0.878c-2.964,1.616-6.207-1.627-4.594-4.593L51.366,35.819z    M51.699,35.212l-0.332,0.604l0.877,0.48l0.332-0.605L51.699,35.212z M51.856,34.655c-0.01,0.196-0.064,0.387-0.158,0.559   l0.878,0.478c0.165-0.303,0.26-0.639,0.278-0.982L51.856,34.655z M51.758,34.083c0.075,0.181,0.108,0.376,0.099,0.571l0.999,0.054   c0.018-0.346-0.041-0.688-0.173-1.007L51.758,34.083z M51.423,33.61c0.146,0.131,0.261,0.292,0.335,0.474l0.925-0.382   c-0.133-0.319-0.333-0.604-0.591-0.834L51.423,33.61z M50.917,33.327c0.188,0.056,0.36,0.151,0.506,0.282l0.668-0.743   c-0.256-0.23-0.561-0.4-0.892-0.498L50.917,33.327z M50.255,33.132l0.662,0.195l0.283-0.959l-0.662-0.195L50.255,33.132z    M50.255,24.719c-4.192,1.234-4.192,7.179,0,8.413l0.282-0.959c-3.236-0.953-3.236-5.542,0-6.494L50.255,24.719z M50.917,24.524   l-0.662,0.195l0.283,0.959l0.662-0.195L50.917,24.524z M51.423,24.241c-0.146,0.131-0.317,0.228-0.506,0.282l0.282,0.959   c0.331-0.098,0.636-0.268,0.892-0.498L51.423,24.241z M51.758,23.769c-0.074,0.182-0.188,0.342-0.335,0.474l0.668,0.743   c0.258-0.229,0.458-0.516,0.591-0.834L51.758,23.769z M51.856,23.197c0.01,0.195-0.023,0.392-0.099,0.572l0.925,0.383   c0.132-0.318,0.19-0.662,0.173-1.008L51.856,23.197z M51.698,22.639c0.093,0.172,0.147,0.362,0.158,0.558l0.999-0.053   c-0.019-0.344-0.113-0.68-0.278-0.982L51.698,22.639z M51.368,22.033l0.33,0.604l0.878-0.478l-0.33-0.606L51.368,22.033z    M57.316,16.082c-3.84-2.089-8.04,2.111-5.948,5.951l0.878-0.479c-1.614-2.963,1.627-6.207,4.593-4.595L57.316,16.082z    M57.924,16.415l-0.604-0.332l-0.48,0.877l0.605,0.332L57.924,16.415z M58.48,16.572c-0.195-0.01-0.387-0.063-0.559-0.157   l-0.479,0.878c0.304,0.165,0.64,0.26,0.982,0.277L58.48,16.572z M59.053,16.474c-0.183,0.075-0.378,0.108-0.572,0.098l-0.053,0.999   c0.345,0.02,0.688-0.041,1.008-0.173L59.053,16.474z M59.525,16.139c-0.131,0.146-0.293,0.26-0.474,0.335l0.384,0.924   c0.317-0.132,0.604-0.333,0.834-0.59L59.525,16.139z M59.809,15.633c-0.057,0.188-0.152,0.36-0.283,0.506l0.744,0.669   c0.229-0.257,0.399-0.562,0.498-0.893L59.809,15.633z M60.004,14.971l-0.194,0.662l0.959,0.282l0.194-0.662L60.004,14.971z    M68.416,14.971c-1.233-4.192-7.178-4.192-8.412,0l0.959,0.282c0.953-3.235,5.541-3.235,6.494,0L68.416,14.971z M62.277,16.361   l0.479,0.143l0,0L62.277,16.361z M56.691,18.675l-0.238,0.439l0,0L56.691,18.675z M56.086,18.345l0.239-0.438h-0.001L56.086,18.345   z M53.627,20.802l-0.438,0.239l0.001,0.001L53.627,20.802z M53.959,21.408l0.439-0.239l-0.001-0.001L53.959,21.408z M51.646,26.992   l0.141,0.479l0,0L51.646,26.992z M50.983,27.187l0.141,0.48l0,0L50.983,27.187z M50.983,30.661l0.141-0.48l0,0L50.983,30.661z    M51.646,30.855l-0.143,0.479l0,0L51.646,30.855z M53.959,36.446l0.439,0.24l0,0L53.959,36.446z M53.629,37.05l-0.438-0.24v0.001   L53.629,37.05z M56.086,39.509l0.238,0.439l0.002-0.002L56.086,39.509z M56.691,39.177l-0.238-0.439l-0.002,0.002L56.691,39.177z    M62.277,41.49l0.479-0.143l0,0L62.277,41.49z M62.473,42.152l0.479-0.142L62.473,42.152z M65.947,42.152l-0.48-0.142l0,0   L65.947,42.152z M66.142,41.492l0.479,0.142l0,0L66.142,41.492z M71.73,39.177l0.238-0.439h-0.001L71.73,39.177z M72.334,39.507   l-0.24,0.438h0.002L72.334,39.507z M74.793,37.05l0.439-0.239l-0.002-0.002L74.793,37.05z M74.461,36.446l-0.438,0.239l0.001,0.001   L74.461,36.446z M76.774,30.857l-0.143-0.479l0,0L76.774,30.857z M77.437,30.663l-0.143-0.479l0,0L77.437,30.663z M77.437,27.189   l-0.143,0.479l0,0L77.437,27.189z M76.776,26.994l0.142-0.479l0,0L76.776,26.994z M74.461,21.408l-0.438-0.239l0,0L74.461,21.408z    M74.791,20.802l0.438,0.239h0.001L74.791,20.802z M72.334,18.343l-0.237-0.439l-0.004,0.001L72.334,18.343z M71.73,18.675   l0.237,0.439l0.003-0.002L71.73,18.675z M66.142,16.361l-0.479,0.143L66.142,16.361z M65.947,15.699l-0.48,0.142L65.947,15.699z    M68.132,15.774l0.479-0.141l0,0L68.132,15.774z M70.736,16.853l-0.24-0.438l0,0L70.736,16.853z M71.342,16.523l0.239,0.438l0,0   L71.342,16.523z M76.615,21.794l0.438,0.24l0.001-0.001L76.615,21.794z M76.283,22.399l-0.439-0.239v0.001L76.283,22.399z    M77.361,25.004l0.142-0.479l0,0L77.361,25.004z M78.023,25.199l-0.142,0.479l0,0L78.023,25.199z M78.023,32.652l-0.142-0.479l0,0   L78.023,32.652z M77.361,32.848l0.142,0.479l0,0L77.361,32.848z M76.283,35.452l0.438-0.239l0,0L76.283,35.452z M76.612,36.058   l-0.438,0.239l0,0L76.612,36.058z M71.342,41.331l-0.239,0.438h0.001L71.342,41.331z M70.736,40.999l0.24-0.438h-0.002   L70.736,40.999z M68.132,42.078l0.479,0.141l0,0L68.132,42.078z M67.937,42.74l-0.479-0.142l0,0L67.937,42.74z M60.482,42.74   l0.479-0.142l0,0L60.482,42.74z M60.288,42.078l-0.479,0.141l0,0L60.288,42.078z M57.684,40.999l0.238,0.438l0,0L57.684,40.999z    M57.078,41.328l-0.239-0.438h-0.001L57.078,41.328z M51.805,36.058l-0.438-0.24l-0.001,0.001L51.805,36.058z M52.137,35.452   l0.438,0.239v-0.001L52.137,35.452z M51.058,32.848l-0.143,0.479l0,0L51.058,32.848z M50.396,32.652l0.142-0.479l0,0L50.396,32.652   z M50.396,25.199l0.141,0.479l0,0L50.396,25.199z M51.058,25.004l-0.142-0.479l0,0L51.058,25.004z M52.137,22.399l-0.439,0.239l0,0   L52.137,22.399z M51.807,21.794l0.438-0.239l0,0L51.807,21.794z M57.078,16.521l0.24-0.438h-0.002L57.078,16.521z M57.684,16.853   l-0.24,0.438h0.001L57.684,16.853z M60.288,15.774l-0.479-0.141l0,0L60.288,15.774z M60.482,15.112l0.479,0.142l0,0L60.482,15.112z   "></path>
	<path fill="#061735" d="M46.39,73.158c0,4.102-1.629,8.034-4.529,10.935s-6.833,4.529-10.935,4.529   c-4.101,0-8.034-1.63-10.934-4.529c-2.9-2.899-4.529-6.833-4.529-10.935s1.629-8.033,4.529-10.935   c2.899-2.899,6.833-4.529,10.934-4.529c4.102,0,8.034,1.63,10.935,4.529C44.761,65.124,46.39,69.058,46.39,73.158z"></path>
	<path fill="#FFFFFF" d="M42.236,73.158c0,2.998-1.191,5.875-3.313,7.994c-2.12,2.121-4.997,3.313-7.995,3.313   c-2.999,0-5.875-1.191-7.996-3.313c-2.121-2.119-3.313-4.996-3.313-7.994c0-3,1.191-5.876,3.313-7.996   c2.121-2.121,4.997-3.313,7.996-3.313c2.998,0,5.875,1.191,7.995,3.313C41.044,67.282,42.236,70.158,42.236,73.158z"></path>
	<path fill="#AF0000" d="M38.658,47.385c0,2.05,0.814,4.017,2.264,5.467c1.45,1.45,3.417,2.265,5.468,2.265h10.309v47.703   c0,0-5.154-9.045-25.772-9.045c-20.617,0-25.771,9.045-25.771,9.045V42.23c0-1.367,0.543-2.678,1.51-3.645s2.278-1.51,3.646-1.51   h28.35L38.658,47.385L38.658,47.385z M61.853,104.084V55.117L38.658,31.922h-28.35c-2.734,0-5.356,1.086-7.289,3.02   C1.086,36.875,0,39.497,0,42.23v61.854c0,2.732,1.086,5.354,3.021,7.289c1.933,1.934,4.555,3.02,7.289,3.02h41.234   c2.734,0,5.356-1.086,7.289-3.02C60.767,109.439,61.853,106.817,61.853,104.084z"></path>
</g>
</svg>
