<?xml version="1.0" encoding="UTF-8"?>
<!-- Generator: Adobe Illustrator 16.0.0, SVG Export Plug-In . SVG Version: 6.00 Build 0)  -->
<svg xmlns="http://www.w3.org/2000/svg" xmlns:xlink="http://www.w3.org/1999/xlink" version="1.1" id="Layer_1" x="0px" y="0px" width="104.35px" height="114.391px" viewBox="0 0 104.35 114.391" xml:space="preserve">
<g>
	<circle fill="#E7E8EB" cx="66.395" cy="37.955" r="37.955"></circle>
	<path fill="#AF0000" d="M40.278,114.391c10.684,0,20.929-4.243,28.481-11.797s11.797-17.799,11.797-28.481   c0-10.682-4.243-20.928-11.796-28.481S50.961,33.834,40.278,33.834c-10.683,0-20.927,4.244-28.48,11.797S0,63.43,0,74.112   c0,10.683,4.244,20.929,11.797,28.481S29.596,114.391,40.278,114.391z M40.278,109.356c-9.347,0-18.312-3.714-24.921-10.322   C8.748,92.424,5.035,83.46,5.035,74.112c0-9.347,3.713-18.312,10.322-24.921c6.61-6.608,15.574-10.321,24.921-10.321   c9.348,0,18.313,3.713,24.922,10.321c6.608,6.609,10.321,15.574,10.321,24.921c0,9.349-3.713,18.313-10.321,24.922   C58.591,105.642,49.625,109.356,40.278,109.356z"></path>
	<path fill="#061735" d="M40.279,104.32c3.968,0,7.896-0.78,11.562-2.3c3.665-1.519,6.995-3.743,9.8-6.548   c2.806-2.806,5.03-6.136,6.549-9.801c1.52-3.665,2.3-7.594,2.3-11.562c0-3.967-0.78-7.896-2.3-11.561   c-1.519-3.665-3.743-6.995-6.549-9.8c-2.805-2.806-6.135-5.03-9.8-6.548c-3.665-1.52-7.594-2.301-11.562-2.301   c-8.012,0-15.694,3.184-21.36,8.849C13.253,58.416,10.07,66.1,10.07,74.111c0,8.012,3.184,15.695,8.849,21.361   C24.584,101.138,32.268,104.32,40.279,104.32z M40.279,99.285c-6.677,0-13.079-2.652-17.801-7.373   c-4.721-4.722-7.373-11.124-7.373-17.802c0-6.677,2.652-13.079,7.373-17.801c4.722-4.721,11.124-7.373,17.801-7.373   c6.678,0,13.079,2.652,17.802,7.373c4.721,4.722,7.373,11.124,7.373,17.801c0,6.678-2.652,13.08-7.373,17.802   C53.358,96.633,46.956,99.285,40.279,99.285z"></path>
	<path fill="#AF0000" d="M40.278,94.251c5.342,0,10.465-2.122,14.241-5.898c3.776-3.775,5.898-8.898,5.898-14.24   s-2.122-10.464-5.898-14.24s-8.898-5.898-14.241-5.898c-5.342,0-10.464,2.122-14.24,5.898c-3.777,3.776-5.898,8.898-5.898,14.24   s2.122,10.465,5.898,14.24C29.813,92.129,34.937,94.251,40.278,94.251z M40.278,89.217c-4.006,0-7.848-1.592-10.68-4.424   c-2.833-2.833-4.424-6.675-4.424-10.682s1.591-7.849,4.424-10.681c2.833-2.833,6.674-4.424,10.68-4.424   c4.007,0,7.849,1.591,10.681,4.424c2.833,2.832,4.424,6.674,4.424,10.681s-1.591,7.849-4.424,10.682   C48.125,87.625,44.284,89.217,40.278,89.217z"></path>
	<path fill="#061735" d="M47.83,74.111c0,2.002-0.796,3.925-2.212,5.341c-1.417,1.416-3.339,2.212-5.342,2.212   s-3.924-0.796-5.34-2.212s-2.212-3.339-2.212-5.341c0-2.004,0.796-3.924,2.212-5.341c1.416-1.416,3.337-2.212,5.34-2.212   s3.925,0.796,5.342,2.212C47.034,70.188,47.83,72.107,47.83,74.111z"></path>
</g>
</svg>
