<?xml version="1.0" encoding="UTF-8"?>
<!-- Generator: Adobe Illustrator 16.0.0, SVG Export Plug-In . SVG Version: 6.00 Build 0)  -->
<svg xmlns="http://www.w3.org/2000/svg" xmlns:xlink="http://www.w3.org/1999/xlink" version="1.1" id="Layer_1" x="0px" y="0px" width="107.521px" height="114.391px" viewBox="0 0 107.521 114.391" xml:space="preserve">
<g>
	<circle fill="#E7E8EB" cx="69.567" cy="37.955" r="37.955"></circle>
	<path fill="#AF0000" d="M41.609,75.184L9.151,62.21l32.458-15.147L74.067,62.21L41.609,75.184z M42.707,41.837   c-0.343-0.16-0.718-0.243-1.097-0.243s-0.753,0.083-1.097,0.243l-39,18.199c-0.459,0.215-0.847,0.559-1.112,0.988   C0.134,61.457,0,61.957,0.014,62.463c0.014,0.507,0.175,0.998,0.465,1.414s0.693,0.738,1.165,0.928l39,15.6   c0.621,0.249,1.313,0.249,1.934,0L72.809,68.32v30.472c-1.379,0-2.701,0.549-3.678,1.522c-0.975,0.976-1.521,2.298-1.521,3.678   v10.398h15.6v-10.398c0-1.38-0.548-2.702-1.522-3.678c-0.976-0.975-2.298-1.522-3.678-1.522V66.234l3.567-1.43   c0.47-0.188,0.875-0.512,1.164-0.928c0.29-0.416,0.451-0.907,0.465-1.414c0.015-0.506-0.12-1.006-0.387-1.438   c-0.268-0.431-0.653-0.773-1.112-0.988L42.707,41.837z"></path>
	<path fill="#061735" d="M21.371,87.896l1.146-3.89l18.178,6.817c0.591,0.222,1.241,0.222,1.831,0l18.179-6.817l1.146,3.89   l-20.238,8.086l-20.238-8.091v0.005H21.371z M21.725,78.157c-0.335-0.126-0.691-0.183-1.05-0.163   c-0.356,0.018-0.707,0.108-1.026,0.27c-0.32,0.159-0.604,0.383-0.834,0.658c-0.229,0.272-0.4,0.593-0.501,0.936l-2.602,8.841   c-0.182,0.62-0.126,1.286,0.157,1.868c0.282,0.581,0.772,1.037,1.372,1.277l23.4,9.359c0.62,0.249,1.313,0.249,1.934,0   l23.399-9.359c0.601-0.24,1.09-0.696,1.373-1.277c0.281-0.582,0.338-1.248,0.155-1.868l-2.601-8.841   c-0.102-0.343-0.271-0.662-0.501-0.936c-0.229-0.275-0.513-0.499-0.833-0.658c-0.32-0.16-0.67-0.252-1.027-0.27   c-0.356-0.02-0.715,0.037-1.049,0.163l-19.885,7.457L21.725,78.157z"></path>
</g>
</svg>
