<?xml version="1.0" encoding="UTF-8"?>
<!-- Generator: Adobe Illustrator 16.0.0, SVG Export Plug-In . SVG Version: 6.00 Build 0)  -->
<svg xmlns="http://www.w3.org/2000/svg" xmlns:xlink="http://www.w3.org/1999/xlink" version="1.1" id="Layer_1" x="0px" y="0px" width="119.865px" height="106.563px" viewBox="0 0 119.865 106.563" xml:space="preserve">
<g>
	<circle fill="#E7E8EB" cx="83.912" cy="35.954" r="35.954"></circle>
	<path fill="#AF0000" d="M49.302,47.401c-4.93-4.313-11.709-4.931-17.872-4.313c-7.395,0.616-14.791,3.698-19.104,5.547   c-0.616,0.616-1.232,1.232-1.232,1.849v53c0,1.232,1.232,2.466,2.465,2.466c0.617,0,0.617,0,1.233,0   c4.314-1.851,11.093-4.314,17.872-4.932c6.779-0.616,12.326,0.616,15.407,4.314c0.616,1.231,2.465,1.231,3.081,0.615   c0,0,0,0,0.616-0.615c3.082-3.698,8.628-4.932,15.407-4.314c6.778,0.616,13.559,3.081,17.872,4.932   c1.231,0.615,2.466,0,3.081-1.232c0-0.617,0-0.617,0-1.232v-53c0-1.231-0.615-1.849-1.232-2.465   c-4.313-1.849-11.709-4.313-19.104-5.547C61.011,42.471,54.232,43.087,49.302,47.401z M51.767,51.715   c3.082-3.081,8.628-4.313,14.791-3.697c6.162,0.616,12.325,2.465,16.022,4.313v47.453c-4.313-1.85-9.86-3.081-16.022-3.697   c-5.547-0.616-11.093,0-15.407,2.465V51.715H51.767z M15.407,52.331c4.314-1.85,10.477-3.697,16.023-4.313   c6.163-0.616,11.709,0,14.791,3.697v46.837c-4.314-2.465-10.477-3.081-15.407-2.465c-5.546,0.616-11.093,2.465-16.023,3.697   C15.407,99.784,15.407,52.331,15.407,52.331z"></path>
	<path fill="#061735" d="M7.396,65.89c1.232-0.616,1.849-1.849,1.232-3.081c-0.617-1.231-1.849-1.849-3.081-1.231   c-1.233,0.615-2.466,1.849-3.698,2.465C0.616,65.273,0,66.506,0,67.738c0,2.466,1.849,4.314,3.697,4.932   c1.85,1.849,4.314,2.465,7.396,3.697c6.163,1.849,14.175,2.466,23.419,2.466c0.616,0,0.616,0,1.232,0l-4.931,4.93   c-0.616,0.616-0.616,2.465,0,3.081s2.465,0.616,3.082,0l8.627-8.628c0.617-0.616,0.617-2.465,0-3.081l-8.627-8.628   c-0.617-0.616-1.85-0.616-3.082,0c-0.616,0.616-0.616,2.465,0,3.082l4.931,4.93h-1.232c-8.628,0-16.64-1.231-22.187-2.465   c-3.081-0.616-4.93-1.85-6.162-2.465c-1.85-1.232-1.85-1.851-1.85-1.851s0,0,0.617-0.615C5.547,66.506,6.163,66.506,7.396,65.89z"></path>
	<path fill="#061735" d="M92.44,61.576c-1.232-0.616-2.465,0-3.082,1.231c-0.615,1.232,0,2.465,1.233,3.081   c1.232,0.616,2.466,1.232,2.466,1.849c1.231,0.617,1.231,0.617,1.231,0.617s0,0-0.616,0.615c-0.615,0.617-1.849,1.232-3.081,1.85   c-3.082,1.232-7.396,2.466-12.942,3.081c-1.231,0-1.849,1.232-1.849,2.466c0,1.232,1.232,1.849,2.466,1.849   c5.547-0.616,10.477-1.849,14.174-3.697c1.85-0.616,3.082-1.849,4.313-2.465c0.616-0.616,1.849-1.85,1.849-3.697   c0-1.85-0.615-3.082-1.849-4.313C95.522,63.425,94.29,62.192,92.44,61.576z"></path>
</g>
</svg>
